<mxfile host="Electron" agent="Mozilla/5.0 (Windows NT 10.0; Win64; x64) AppleWebKit/537.36 (KHTML, like Gecko) draw.io/28.0.6 Chrome/138.0.7204.100 Electron/37.2.3 Safari/537.36" version="28.0.6">
  <diagram name="Page-1" id="pefeGGHLqFtcGQ1tfoUZ">
    <mxGraphModel dx="373" dy="239" grid="1" gridSize="10" guides="1" tooltips="1" connect="1" arrows="1" fold="1" page="1" pageScale="1" pageWidth="940" pageHeight="390" math="0" shadow="0">
      <root>
        <mxCell id="0" />
        <mxCell id="1" parent="0" />
        <mxCell id="DKl55M2n6CM7J2jj_rMx-1" value="&lt;b&gt;Composables&lt;/b&gt;" style="rounded=0;whiteSpace=wrap;html=1;fillColor=#fff2cc;strokeColor=#d6b656;labelBackgroundColor=none;fontColor=#000000;" parent="1" vertex="1">
          <mxGeometry x="800" y="120" width="130" height="160" as="geometry" />
        </mxCell>
        <mxCell id="DKl55M2n6CM7J2jj_rMx-8" value="Home Screen &amp;amp; Preview Screen" style="text;html=1;align=left;verticalAlign=middle;whiteSpace=wrap;rounded=0;fontStyle=1;labelBackgroundColor=none;" parent="1" vertex="1">
          <mxGeometry x="800" y="90" width="125" height="30" as="geometry" />
        </mxCell>
        <mxCell id="DKl55M2n6CM7J2jj_rMx-14" style="edgeStyle=orthogonalEdgeStyle;rounded=0;orthogonalLoop=1;jettySize=auto;html=1;exitX=1;exitY=0.5;exitDx=0;exitDy=0;entryX=0;entryY=0.5;entryDx=0;entryDy=0;startArrow=classic;startFill=1;strokeWidth=5;labelBackgroundColor=none;startSize=0;endSize=0;" parent="1" source="DKl55M2n6CM7J2jj_rMx-9" target="DKl55M2n6CM7J2jj_rMx-1" edge="1">
          <mxGeometry relative="1" as="geometry" />
        </mxCell>
        <mxCell id="DKl55M2n6CM7J2jj_rMx-15" style="edgeStyle=orthogonalEdgeStyle;rounded=0;orthogonalLoop=1;jettySize=auto;html=1;exitX=0;exitY=0.5;exitDx=0;exitDy=0;entryX=1;entryY=0.5;entryDx=0;entryDy=0;strokeWidth=5;startArrow=classic;startFill=1;labelBackgroundColor=none;startSize=0;endSize=0;" parent="1" source="DKl55M2n6CM7J2jj_rMx-9" target="DKl55M2n6CM7J2jj_rMx-12" edge="1">
          <mxGeometry relative="1" as="geometry" />
        </mxCell>
        <mxCell id="DKl55M2n6CM7J2jj_rMx-9" value="" style="rounded=0;whiteSpace=wrap;html=1;fillColor=#fff2cc;strokeColor=#d6b656;labelBackgroundColor=none;" parent="1" vertex="1">
          <mxGeometry x="430" y="30" width="300" height="340" as="geometry" />
        </mxCell>
        <mxCell id="DKl55M2n6CM7J2jj_rMx-10" value="MainActivityViewModel" style="text;html=1;align=left;verticalAlign=middle;whiteSpace=wrap;rounded=0;fontStyle=1;labelBackgroundColor=none;" parent="1" vertex="1">
          <mxGeometry x="430" width="125" height="30" as="geometry" />
        </mxCell>
        <mxCell id="DKl55M2n6CM7J2jj_rMx-11" value="PrinterDeviceManager" style="text;html=1;align=left;verticalAlign=middle;whiteSpace=wrap;rounded=0;fontStyle=1;labelBackgroundColor=none;" parent="1" vertex="1">
          <mxGeometry x="10" y="90" width="125" height="30" as="geometry" />
        </mxCell>
        <mxCell id="DKl55M2n6CM7J2jj_rMx-12" value="" style="rounded=0;whiteSpace=wrap;html=1;strokeWidth=1;fillColor=#fff2cc;strokeColor=#d6b656;labelBackgroundColor=none;" parent="1" vertex="1">
          <mxGeometry x="10" y="120" width="360" height="160" as="geometry" />
        </mxCell>
        <mxCell id="8mkdb6dYoWKnRZecYCWD-2" value="&lt;div style=&quot;color: rgb(188, 190, 196);&quot;&gt;&lt;pre style=&quot;font-family:&#39;JetBrains Mono&#39;,monospace;font-size:9.8pt;&quot;&gt;&lt;span style=&quot;color:#cf8e6d;&quot;&gt;var &lt;/span&gt;&lt;span style=&quot;color:#c77dbb;&quot;&gt;availablePrinters&lt;/span&gt;: Map&amp;lt;String, UsbDevice&amp;gt;,&lt;br&gt;&lt;span style=&quot;color:#cf8e6d;&quot;&gt;var &lt;/span&gt;&lt;span style=&quot;color:#c77dbb;&quot;&gt;selectedPrinter&lt;/span&gt;: String?,&lt;br&gt;&lt;span style=&quot;color:#cf8e6d;&quot;&gt;var &lt;/span&gt;&lt;span style=&quot;color:#c77dbb;&quot;&gt;printProgress&lt;/span&gt;: PrintProgress,&lt;br&gt;&lt;span style=&quot;color:#cf8e6d;&quot;&gt;val &lt;/span&gt;&lt;span style=&quot;color:#c77dbb;&quot;&gt;printResult&lt;/span&gt;: PrintCommandResult?,&lt;span style=&quot;color:#7a7e85;&quot;&gt;&lt;br&gt;&lt;/span&gt;&lt;span style=&quot;color:#cf8e6d;&quot;&gt;val &lt;/span&gt;&lt;span style=&quot;color:#c77dbb;&quot;&gt;queryResult&lt;/span&gt;: QueryCommandResult? &lt;/pre&gt;&lt;/div&gt;" style="rounded=0;whiteSpace=wrap;html=1;strokeWidth=1;fillColor=#000000;strokeColor=#6c8ebf;align=left;labelBackgroundColor=none;spacing=8;" parent="1" vertex="1">
          <mxGeometry x="18.75" y="160" width="342.5" height="80" as="geometry" />
        </mxCell>
        <mxCell id="8mkdb6dYoWKnRZecYCWD-7" value="&lt;div style=&quot;color: rgb(188, 190, 196);&quot;&gt;&lt;pre style=&quot;font-family: &amp;quot;JetBrains Mono&amp;quot;, monospace; font-size: 9.8pt;&quot;&gt;&lt;span&gt;&lt;span style=&quot;color: rgb(207, 142, 109);&quot;&gt;val &lt;/span&gt;&lt;span style=&quot;color: rgb(199, 125, 187);&quot;&gt;numCopies&lt;/span&gt;: Int,&lt;br&gt;&lt;span style=&quot;color: rgb(207, 142, 109);&quot;&gt;var &lt;/span&gt;&lt;span style=&quot;color: rgb(199, 125, 187);&quot;&gt;dither&lt;/span&gt;: DitherOption,&lt;br&gt;&lt;span style=&quot;color: rgb(207, 142, 109);&quot;&gt;var &lt;/span&gt;&lt;span style=&quot;color: rgb(199, 125, 187);&quot;&gt;colorThreshold&lt;/span&gt;: Float,&lt;br&gt;&lt;span style=&quot;color: rgb(207, 142, 109);&quot;&gt;var &lt;/span&gt;&lt;span style=&quot;color: rgb(199, 125, 187);&quot;&gt;bitmap&lt;/span&gt;: Bitmap?&lt;/span&gt;&lt;/pre&gt;&lt;/div&gt;" style="rounded=0;whiteSpace=wrap;html=1;strokeWidth=1;fillColor=#000000;strokeColor=#6c8ebf;align=left;labelBackgroundColor=none;fillStyle=solid;spacing=8;spacingTop=0;spacingBottom=0;" parent="1" vertex="1">
          <mxGeometry x="450" y="70" width="200" height="70" as="geometry" />
        </mxCell>
        <mxCell id="8mkdb6dYoWKnRZecYCWD-8" value="Printer State" style="text;strokeColor=none;align=left;fillColor=none;html=1;verticalAlign=middle;whiteSpace=wrap;rounded=0;fontStyle=1;labelBackgroundColor=none;fontColor=#000000;" parent="1" vertex="1">
          <mxGeometry x="18" y="144" width="90" height="14" as="geometry" />
        </mxCell>
        <mxCell id="8mkdb6dYoWKnRZecYCWD-9" value="PrintConfig" style="text;strokeColor=none;align=left;fillColor=none;html=1;verticalAlign=middle;whiteSpace=wrap;rounded=0;fontStyle=1;labelBackgroundColor=none;fontColor=#000000;" parent="1" vertex="1">
          <mxGeometry x="450" y="56" width="90" height="14" as="geometry" />
        </mxCell>
        <mxCell id="8mkdb6dYoWKnRZecYCWD-10" value="&lt;div&gt;&lt;pre style=&quot;font-family: &amp;quot;JetBrains Mono&amp;quot;, monospace; font-size: 9.8pt;&quot;&gt;&lt;span style=&quot;color: rgb(188, 190, 196);&quot;&gt;&lt;span style=&quot;color: rgb(207, 142, 109);&quot;&gt;val &lt;/span&gt;&lt;span style=&quot;color: rgb(199, 125, 187);&quot;&gt;numCopies&lt;/span&gt;: Int,&lt;br&gt;&lt;span style=&quot;color: rgb(207, 142, 109);&quot;&gt;var &lt;/span&gt;&lt;span style=&quot;color: rgb(199, 125, 187);&quot;&gt;dither&lt;/span&gt;: DitherOption,&lt;br&gt;&lt;span style=&quot;color: rgb(207, 142, 109);&quot;&gt;var &lt;/span&gt;&lt;span style=&quot;color: rgb(199, 125, 187);&quot;&gt;colorThreshold&lt;/span&gt;: Float,&lt;br&gt;&lt;span style=&quot;color: rgb(207, 142, 109);&quot;&gt;var &lt;/span&gt;&lt;span style=&quot;color: rgb(199, 125, 187);&quot;&gt;bitmap&lt;/span&gt;: Bitmap?,&lt;br/&gt;&lt;/span&gt;&lt;font style=&quot;color: rgb(207, 142, 109);&quot;&gt;var&lt;/font&gt;&lt;font color=&quot;#bcbec4&quot;&gt; &lt;/font&gt;&lt;span style=&quot;color: rgb(199, 125, 187); font-size: 9.8pt; background-color: transparent; white-space: normal;&quot;&gt;labelSize&lt;/span&gt;&lt;span style=&quot;color: rgb(188, 190, 196); font-size: 9.8pt; background-color: transparent; white-space: normal;&quot;&gt;: LabelSize&lt;/span&gt;&lt;/pre&gt;&lt;/div&gt;" style="rounded=0;whiteSpace=wrap;html=1;strokeWidth=1;fillColor=#000000;strokeColor=#6c8ebf;align=left;labelBackgroundColor=none;fillStyle=solid;spacing=8;spacingTop=0;spacingBottom=0;" parent="1" vertex="1">
          <mxGeometry x="450" y="184" width="200" height="90" as="geometry" />
        </mxCell>
        <mxCell id="8mkdb6dYoWKnRZecYCWD-11" value="PrintConfigTransformed" style="text;strokeColor=none;align=left;fillColor=none;html=1;verticalAlign=middle;whiteSpace=wrap;rounded=0;fontStyle=1;labelBackgroundColor=none;fontColor=#000000;" parent="1" vertex="1">
          <mxGeometry x="450" y="170" width="90" height="14" as="geometry" />
        </mxCell>
        <mxCell id="8mkdb6dYoWKnRZecYCWD-15" value="" style="endArrow=classic;html=1;rounded=0;fontColor=#000000;strokeColor=#000000;" parent="1" edge="1">
          <mxGeometry width="50" height="50" relative="1" as="geometry">
            <mxPoint x="550" y="147" as="sourcePoint" />
            <mxPoint x="549.71" y="167" as="targetPoint" />
          </mxGeometry>
        </mxCell>
        <mxCell id="8mkdb6dYoWKnRZecYCWD-16" value="&lt;pre style=&quot;font-family: &amp;quot;JetBrains Mono&amp;quot;, monospace; font-size: 9.8pt;&quot;&gt;&lt;div style=&quot;color: rgb(188, 190, 196);&quot;&gt;&lt;pre style=&quot;font-family:&#39;JetBrains Mono&#39;,monospace;font-size:9.8pt;&quot;&gt;&lt;span style=&quot;color:#cf8e6d;&quot;&gt;var &lt;/span&gt;&lt;span style=&quot;color:#c77dbb;&quot;&gt;uri&lt;/span&gt;: Uri? = &lt;span style=&quot;color:#cf8e6d;&quot;&gt;null&lt;/span&gt;,&lt;br&gt;&lt;span style=&quot;color:#cf8e6d;&quot;&gt;var &lt;/span&gt;&lt;span style=&quot;color:#c77dbb;&quot;&gt;uriLoaded&lt;/span&gt;: Boolean = &lt;span style=&quot;color:#cf8e6d;&quot;&gt;false&lt;/span&gt;&lt;/pre&gt;&lt;/div&gt;&lt;/pre&gt;" style="rounded=0;whiteSpace=wrap;html=1;strokeWidth=1;fillColor=#000000;strokeColor=#6c8ebf;align=left;labelBackgroundColor=none;fillStyle=solid;spacing=8;spacingTop=0;spacingBottom=0;" parent="1" vertex="1">
          <mxGeometry x="450" y="300" width="265" height="40" as="geometry" />
        </mxCell>
        <mxCell id="8mkdb6dYoWKnRZecYCWD-18" value="CropViewState" style="text;strokeColor=none;align=left;fillColor=none;html=1;verticalAlign=middle;whiteSpace=wrap;rounded=0;fontStyle=1;labelBackgroundColor=none;fontColor=#000000;" parent="1" vertex="1">
          <mxGeometry x="450" y="286" width="90" height="14" as="geometry" />
        </mxCell>
      </root>
    </mxGraphModel>
  </diagram>
</mxfile>
